<svg width="300" height="67" viewBox="0 0 300 67" fill="none" xmlns="http://www.w3.org/2000/svg">
<path d="M0.920001 66V0.48H22.64L37.76 48.96H38.12L53.84 0.48H75.32V66H60.44V36C60.44 33.92 60.48 31.6 60.56 29.04C60.64 26.4 60.72 23.92 60.8 21.6C60.96 19.28 61.08 17.56 61.16 16.44H60.8L44.96 66H29.96L14.72 16.32H14.24C14.4 17.44 14.56 19.16 14.72 21.48C14.88 23.8 15 26.32 15.08 29.04C15.24 31.68 15.32 34.12 15.32 36.36V66H0.920001Z" fill="#FC8587"/>
<path d="M152.688 41.52C152.688 46.48 151.648 50.88 149.568 54.72C147.488 58.56 144.328 61.56 140.088 63.72C135.848 65.88 130.528 66.96 124.128 66.96C118.048 66.96 112.928 65.96 108.768 63.96C104.608 61.88 101.448 58.96 99.2881 55.2C97.2081 51.36 96.1681 46.84 96.1681 41.64V0.48H112.368V39.72C112.368 44.84 113.368 48.48 115.368 50.64C117.448 52.8 120.448 53.88 124.368 53.88C128.688 53.88 131.808 52.76 133.728 50.52C135.648 48.2 136.608 44.6 136.608 39.72V0.48H152.688V41.52Z" fill="#FFCA6E"/>
<path d="M215.415 26.0284V40.304H181.239V26.0284H215.415ZM187.205 0.545453V66H169.862V0.545453H187.205ZM226.793 0.545453V66H209.577V0.545453H226.793Z" fill="#86CDDB"/>
<path d="M299.993 41.52C299.993 46.48 298.953 50.88 296.873 54.72C294.793 58.56 291.633 61.56 287.393 63.72C283.153 65.88 277.833 66.96 271.433 66.96C265.353 66.96 260.233 65.96 256.073 63.96C251.913 61.88 248.753 58.96 246.593 55.2C244.513 51.36 243.473 46.84 243.473 41.64V0.48H259.673V39.72C259.673 44.84 260.673 48.48 262.673 50.64C264.753 52.8 267.753 53.88 271.673 53.88C275.993 53.88 279.113 52.76 281.033 50.52C282.953 48.2 283.913 44.6 283.913 39.72V0.48H299.993V41.52Z" fill="#FBDAA1"/>
</svg>
